<svg width="34" height="34" viewBox="0 0 34 34" fill="none" xmlns="http://www.w3.org/2000/svg">
<rect width="34" height="34" rx="8" fill="#002E26"/>
<path d="M11.8339 9.89846C8.49567 14.4389 11.7544 15.886 13.8011 16.042C7.6015 17.7973 0.328856 26.2228 6.1112 29.3239C11.8935 32.4249 24.2928 24.0579 23.2198 20.4303C22.9372 19.4751 20.7757 22.0686 17.4374 24.0579C14.5469 25.7805 7.93885 27.0366 11.059 22.0686C13.7415 17.7973 20.4776 16.2176 21.2526 16.042C22.3852 15.7855 23.6967 12.9258 21.8487 13.4676C17.2586 14.8133 15.2914 13.7016 16.3048 11.2442C17.3182 8.78677 22.6833 6.38785 24.6505 6.44636C26.6177 6.50487 25.1274 8.14315 23.9351 9.19634C26.8561 9.72293 29.4194 7.67507 28.9425 5.15913C28.4656 2.64319 16.0068 4.22297 11.8339 9.89846Z" fill="url(#paint0_linear_2155_37994)"/>
<defs>
<linearGradient id="paint0_linear_2155_37994" x1="16.5" y1="4" x2="16.5" y2="30" gradientUnits="userSpaceOnUse">
<stop stop-color="#FDEBC9"/>
<stop offset="1" stop-color="#A76503"/>
</linearGradient>
</defs>
</svg>
